<?xml version="1.0" encoding="UTF-8" standalone="no"?>
<svg
   xmlns:dc="http://purl.org/dc/elements/1.1/"
   xmlns:cc="http://creativecommons.org/ns#"
   xmlns:rdf="http://www.w3.org/1999/02/22-rdf-syntax-ns#"
   xmlns:svg="http://www.w3.org/2000/svg"
   xmlns="http://www.w3.org/2000/svg"
   xmlns:sodipodi="http://sodipodi.sourceforge.net/DTD/sodipodi-0.dtd"
   xmlns:inkscape="http://www.inkscape.org/namespaces/inkscape"
   sodipodi:docname="app-icon-3-foreground.svg"
   inkscape:version="1.0 (4035a4fb49, 2020-05-01)"
   id="svg839"
   version="1.1"
   viewBox="0 0 108 108"
   height="108mm"
   width="108mm">
  <defs
     id="defs833" />
  <sodipodi:namedview
     inkscape:pagecheckerboard="true"
     inkscape:window-maximized="1"
     inkscape:window-y="27"
     inkscape:window-x="0"
     inkscape:window-height="1016"
     inkscape:window-width="1920"
     showgrid="false"
     inkscape:document-rotation="0"
     inkscape:current-layer="layer1"
     inkscape:document-units="mm"
     inkscape:cy="208.1408"
     inkscape:cx="196.91779"
     inkscape:zoom="1.4142136"
     inkscape:pageshadow="2"
     inkscape:pageopacity="0"
     borderopacity="1.0"
     bordercolor="#666666"
     pagecolor="#ffffff"
     id="base"
     inkscape:snap-global="false" />
  <metadata
     id="metadata836">
    <rdf:RDF>
      <cc:Work
         rdf:about="">
        <dc:format>image/svg+xml</dc:format>
        <dc:type
           rdf:resource="http://purl.org/dc/dcmitype/StillImage" />
        <dc:title></dc:title>
      </cc:Work>
    </rdf:RDF>
  </metadata>
  <g
     id="layer1"
     inkscape:groupmode="layer"
     inkscape:label="Calque 1">
    <path
       d="m 72.879891,16.86217 -1.922276,-0.892624 -0.307381,-0.514825 -0.371766,-0.01538 0.029,1.02445 -0.01581,0.004 c -0.05815,0.01557 -0.105022,0.07937 -0.104951,0.142831 l 0.08894,73.94567 c -6.1e-5,0.0045 0.0019,0.0083 0.0023,0.01193 l 8.6e-4,0.681005 c 8.7e-5,0.06349 0.04684,0.101837 0.104977,0.0862 l 1.410831,-0.379199 0.0028,2.139707 c 8.7e-5,0.06349 0.04684,0.101845 0.104977,0.0862 l 0.979624,-0.263252 c 0.05814,-0.01557 0.105023,-0.07947 0.104948,-0.142829 l -0.09033,-75.194479 -1.65e-4,-0.0038 3.2e-5,-0.09428 c -5e-6,-0.0044 -0.0018,-0.0078 -0.0023,-0.01191 z m -1.172848,1.039268 0.08048,66.926954 -1.288212,0.34627 -0.08076,-66.926723 z"
       style="fill:#ffffff;fill-opacity:1;stroke:none;stroke-width:0.892493;stroke-miterlimit:4;stroke-dasharray:none"
       id="rect910" />
    <path
       id="path933-6-5"
       style="display:inline;fill:#ffffff;fill-opacity:1;stroke:none;stroke-width:0.0852386px;stroke-linecap:butt;stroke-linejoin:miter;stroke-opacity:1"
       d="m 45.395996,14.392878 -1.083135,0.0095 -0.117203,1.547787 -0.768981,0.06892 -0.02281,0.706717 -0.910823,0.0057 0.0939,1.60156 0.721202,0.07275 -0.02331,1.013711 0.462155,0.332132 -0.0796,2.326025 -2.632058,0.03918 c 0,0 -0.175066,-0.656273 -0.481134,-0.765653 -0.154428,-0.05519 -0.85649,-0.06031 -1.06815,0.04261 -0.297039,0.144436 -0.833946,0.480184 -0.819925,1.199506 0.01336,0.685191 0.497917,1.003963 0.763987,1.163711 0.23825,0.143044 1.128737,0.08325 1.298395,-0.03613 0.19055,-0.13407 0.288015,-0.636962 0.288015,-0.636962 l 2.561457,-9.27e-4 -0.05561,2.671328 -2.492853,-0.02929 c 0,0 -0.165691,-0.510866 -0.358935,-0.684907 -0.139969,-0.126061 -1.265827,-0.158675 -1.483524,0.01316 -0.21493,0.169642 -0.577697,0.711573 -0.561212,1.216985 0.01649,0.505411 0.356006,0.988022 0.651113,1.202835 0.209517,0.152512 1.175884,0.164678 1.348007,0.02747 0.239425,-0.19086 0.488958,-0.806109 0.488958,-0.806109 l 2.323927,0.05044 -0.01532,1.141071 0.28635,0.03662 -0.608493,17.923318 c -7.683869,0.748234 -9.377485,6.474447 -9.425063,8.52573 -0.05655,2.438101 1.404452,5.3969 1.340015,7.305081 -0.02586,0.765927 -0.41171,1.00106 -0.411709,1.00106 l 0.386905,0.594174 c 3.239056,-1.880264 3.022931,3.96855 2.895792,6.270559 -0.124416,2.252719 -1.533651,6.458186 -4.529317,5.029593 l -0.494953,0.995062 c 0,0 0.591885,0.234776 0.66077,0.856055 0.173799,1.567571 -3.412942,4.944895 -1.938687,11.079401 2.105525,7.141124 9.379057,7.197867 13.811873,7.270617 4.43281,-0.07276 11.706343,-0.129493 13.811871,-7.270617 1.474253,-6.134506 -2.112654,-9.51183 -1.938853,-11.079401 0.06888,-0.621284 0.660935,-0.856055 0.660935,-0.856055 l -0.494959,-0.995074 c -2.995668,1.428593 -4.405068,-2.776874 -4.529484,-5.029594 -0.127139,-2.302008 -0.343265,-8.150822 2.895794,-6.270558 l 0.387071,-0.594175 c 0,0 -0.386013,-0.235137 -0.411877,-1.001059 -0.06444,-1.908186 1.396565,-4.866981 1.340016,-7.305081 -0.04758,-2.05128 -1.741197,-7.777499 -9.425063,-8.525726 l -0.608494,-17.923322 0.286351,-0.03663 -0.101597,-2.718546 2.324093,-0.05044 c 0,0 0.249367,0.615247 0.488791,0.806108 0.172124,0.137208 1.138493,0.125042 1.348008,-0.02746 0.295108,-0.214815 0.634794,-0.697425 0.651279,-1.202836 0.0165,-0.505412 -0.346448,-1.047344 -0.561378,-1.216985 -0.217694,-0.171828 -1.343554,-0.139214 -1.483524,-0.01316 -0.193243,0.174042 -0.358935,0.684909 -0.358935,0.684909 l -2.473805,0.0047 -0.112903,-2.565759 2.541322,-0.0095 c 0,0 0.09747,0.502891 0.288015,0.63696 0.16966,0.119371 1.060146,0.179172 1.298395,0.03613 0.266068,-0.159746 0.750631,-0.478518 0.763987,-1.16371 0.01401,-0.719321 -0.522718,-1.055069 -0.819759,-1.199505 -0.211661,-0.102921 -0.913888,-0.09781 -1.068317,-0.04261 -0.306065,0.109379 -0.481132,0.765652 -0.481132,0.765652 l -2.560332,-0.02781 -0.0067,-0.8305 0.462321,-0.332131 -0.02347,-1.013711 0.721369,-0.07275 0.0939,-1.60156 -0.910991,-0.0057 -0.02281,-0.706717 -0.768984,-0.06892 -0.117203,-1.547786 z M 41.481663,67.68803 c 0.605679,0.02643 1.208611,0.578903 1.160549,1.144065 -0.02292,0.26952 -0.195044,0.425912 -0.410046,0.46282 -0.212151,0.03642 -0.395392,-0.109211 -0.443509,-0.312156 -0.04761,-0.200833 0.223419,-0.531739 0.223419,-0.531739 l -0.656273,-0.494955 c 0,0 -0.573305,0.650646 -0.745175,1.332361 -0.266826,1.058355 -0.134018,3.26255 -0.134018,3.26255 l 0.309657,0.177468 -0.302498,0.1515 c 0,0 -0.03964,1.417202 -0.218426,2.096844 -0.145703,0.553872 -0.324754,1.140869 -0.570368,1.549957 -0.320403,0.533653 -0.877263,0.959983 -1.528973,0.965428 -0.429094,0.0033 -0.943842,-0.155685 -1.24995,-0.5732 -0.227283,-0.310004 -0.312762,-0.740462 -0.303497,-1.01371 0.01149,-0.338677 0.239253,-0.655018 0.570203,-0.657271 0.435317,-0.0029 0.607277,0.264669 0.631133,0.610158 0.03743,0.542023 -0.443508,0.72353 -0.443508,0.72353 l 0.790125,0.734853 c 0,0 0.945154,-0.799599 1.125753,-1.424921 0.252472,-0.874183 0.325141,-3.230093 0.325141,-3.230093 l -0.309158,-0.259208 0.316815,-0.07259 c 0,0 0.04406,-1.804189 0.137847,-2.452948 0.104204,-0.720775 0.690901,-2.117299 1.603725,-2.186913 0.0402,-0.0033 0.08065,-0.0033 0.121032,-0.0018 z m 8.034104,0 c 0.04037,-0.0018 0.08083,-0.0011 0.121033,0.0018 0.912823,0.06961 1.499523,1.466138 1.603724,2.186913 0.09379,0.648759 0.137848,2.452949 0.137848,2.452949 l 0.316816,0.07258 -0.309159,0.259215 c 0,0 0.07267,2.355915 0.325141,3.230093 0.1806,0.625316 1.125753,1.424921 1.125753,1.424921 l 0.790125,-0.734854 c 0,0 -0.480934,-0.181506 -0.44351,-0.723535 0.02384,-0.345483 0.195816,-0.612999 0.631136,-0.610158 0.330951,0.0022 0.558717,0.318593 0.570201,0.657276 0.0093,0.273243 -0.07622,0.703707 -0.303497,1.013711 -0.306106,0.417513 -0.820854,0.576785 -1.249949,0.573199 -0.65171,-0.0057 -1.208569,-0.431774 -1.528974,-0.965434 -0.245614,-0.409118 -0.424665,-0.996109 -0.570368,-1.549981 -0.178788,-0.679648 -0.218258,-2.096848 -0.218258,-2.096848 l -0.302666,-0.151501 0.309657,-0.177469 c 0,0 0.132811,-2.204194 -0.134017,-3.262556 -0.171868,-0.681743 -0.745175,-1.33239 -0.745175,-1.33239 l -0.656274,0.49495 c 0,0 0.271038,0.330912 0.223419,0.531745 -0.04811,0.202945 -0.231358,0.348578 -0.443509,0.312155 -0.215001,-0.03688 -0.387126,-0.193299 -0.410045,-0.46282 -0.04807,-0.565162 0.554868,-1.117639 1.160548,-1.144065 z"
       sodipodi:nodetypes="ccccccccccccsssssccccssssscccccssccsccscccsccsccsscccccsscssccccsssssccccccccccccssssccscccssssscsccscccssssscscccsccscssssscccsccsssss" />
  </g>
</svg>
