<?xml version="1.0" encoding="UTF-8" standalone="no"?>
<svg
   xmlns:dc="http://purl.org/dc/elements/1.1/"
   xmlns:cc="http://creativecommons.org/ns#"
   xmlns:rdf="http://www.w3.org/1999/02/22-rdf-syntax-ns#"
   xmlns:svg="http://www.w3.org/2000/svg"
   xmlns="http://www.w3.org/2000/svg"
   xmlns:sodipodi="http://sodipodi.sourceforge.net/DTD/sodipodi-0.dtd"
   xmlns:inkscape="http://www.inkscape.org/namespaces/inkscape"
   width="108mm"
   height="108mm"
   viewBox="0 0 108 108"
   version="1.1"
   id="svg839"
   inkscape:version="1.0 (4035a4fb49, 2020-05-01)"
   sodipodi:docname="app-icon-2-foreground.svg">
  <defs
     id="defs833" />
  <sodipodi:namedview
     inkscape:snap-global="false"
     id="base"
     pagecolor="#ffffff"
     bordercolor="#666666"
     borderopacity="1.0"
     inkscape:pageopacity="0"
     inkscape:pageshadow="2"
     inkscape:zoom="1.4142136"
     inkscape:cx="196.91779"
     inkscape:cy="179.85653"
     inkscape:document-units="mm"
     inkscape:current-layer="layer1"
     inkscape:document-rotation="0"
     showgrid="false"
     inkscape:window-width="1920"
     inkscape:window-height="1016"
     inkscape:window-x="0"
     inkscape:window-y="27"
     inkscape:window-maximized="1"
     inkscape:pagecheckerboard="true" />
  <metadata
     id="metadata836">
    <rdf:RDF>
      <cc:Work
         rdf:about="">
        <dc:format>image/svg+xml</dc:format>
        <dc:type
           rdf:resource="http://purl.org/dc/dcmitype/StillImage" />
        <dc:title></dc:title>
      </cc:Work>
    </rdf:RDF>
  </metadata>
  <g
     inkscape:label="Calque 1"
     inkscape:groupmode="layer"
     id="layer1">
    <path
       id="rect910"
       style="fill:#ffffff;fill-opacity:1;stroke:none;stroke-width:0.892493;stroke-miterlimit:4;stroke-dasharray:none"
       d="m 71.830011,17.815601 -1.708393,-1.254318 -0.199772,-0.565348 -0.361426,-0.08842 -0.173682,1.010037 -0.0163,8.19e-4 c -0.06008,0.0038 -0.118617,0.0571 -0.131066,0.119318 l -14.50121,72.509896 c -9.48e-4,0.0044 2.3e-4,0.0085 -1.73e-4,0.01214 l -0.133507,0.66779 c -0.01243,0.06226 0.02583,0.109077 0.08591,0.105221 l 1.457913,-0.09341 -0.419428,2.098198 c -0.01243,0.06226 0.02583,0.109085 0.08591,0.10522 l 1.01235,-0.06481 c 0.06007,-0.0038 0.118636,-0.05718 0.131064,-0.119316 l 14.746226,-73.734433 5.93e-4,-0.0038 0.01858,-0.09242 c 8.62e-4,-0.0043 -2.68e-4,-0.008 8.7e-5,-0.01213 z m -1.354829,0.787456 -13.124819,65.627454 -1.331207,0.08532 13.124499,-65.627284 z" />
    <path
       id="path9"
       style="fill:#ffffff;fill-opacity:1;fill-rule:evenodd;stroke:none;stroke-width:0.0551618"
       d="m 39.456469,58.345249 c -1.138293,-0.230368 -2.319284,-0.05866 -3.569685,0.481592 -1.257221,0.556984 -2.119632,1.43387 -2.597175,2.605483 -0.300169,0.736441 -0.389877,1.699926 -0.265427,2.831805 0.117629,1.148616 0.588976,2.172792 1.373705,3.07239 0.29114,0.227338 0.373753,0.470681 0.278251,0.705004 -0.03411,0.08369 -0.185537,0.108281 -0.497732,0.03172 -1.368185,-1.15313 -2.290852,-2.606366 -2.764879,-4.317792 -0.467205,-1.728164 -0.39694,-3.387341 0.224457,-5.011002 0.752946,-1.698617 1.927395,-3.043712 3.516527,-4.018547 1.612716,-0.983134 3.332967,-1.387589 5.160752,-1.213371 l 1.265421,-6.5242 c -3.454144,0.842389 -6.45638,2.013266 -9.037108,3.537666 -2.57391,1.507662 -4.441998,3.61292 -5.621022,6.307331 -0.464488,1.238707 -0.697465,2.553674 -0.692098,3.928171 -0.0015,1.391237 0.279465,2.783489 0.829128,4.210236 1.122907,2.845197 3.184022,5.073593 6.142998,6.685036 1.049611,0.447953 2.213996,0.812567 3.509942,1.102196 z m 1.274887,0.440411 -2.631685,14.187844 c 3.003893,0.262272 5.215326,-1.347272 6.620661,-4.795152 0.319877,-1.230849 0.407673,-2.437387 0.213062,-3.644951 C 44.76237,63.317547 44.325129,62.209682 43.604918,61.201368 42.884704,60.19305 41.938022,59.393444 40.731354,58.78566 Z m 3.659246,-19.137281 c 0.689495,-0.05618 1.565117,-0.321206 2.586528,-0.795234 1.014584,-0.457296 2.07381,-1.073659 3.147271,-1.824068 1.097042,-0.758709 2.066833,-1.601685 2.909371,-2.528927 0.835716,-0.91051 1.449855,-1.872104 1.845531,-2.842867 0.170556,-0.41843 0.30758,-0.853749 0.373873,-1.264173 0.178552,-0.63631 0.185213,-1.197809 -0.0036,-1.676205 -0.195609,-0.461667 -0.52963,-0.831628 -1.032408,-1.084871 -1.005559,-0.506486 -2.162973,-0.343043 -3.472245,0.490324 -1.056704,0.758854 -2.094714,1.769202 -3.050112,3.022896 -0.978977,1.261992 -1.78354,2.591661 -2.410574,4.03092 -0.591581,1.699203 -0.876018,3.189985 -0.893642,4.472208 z m -1.451509,0.438952 c 0.350998,-3.091307 1.057648,-6.063998 2.11995,-8.918068 0.753539,-1.799186 1.626913,-3.396795 2.62013,-4.792833 0.976453,-1.404474 2.015054,-2.515394 3.129447,-3.366228 1.097633,-0.859275 2.179848,-1.383371 3.229886,-1.580723 0.938953,-0.17261 1.574466,-0.195461 1.859372,-0.05195 0.217872,0.109727 0.368111,0.286283 0.474307,0.521332 0.106205,0.235046 0.221735,0.595847 0.353442,1.065659 0.841431,3.833134 0.455297,7.754027 -1.168344,11.737503 -0.770886,1.891313 -1.772695,3.605794 -3.025898,5.193652 -1.229615,1.579563 -2.659754,2.957257 -4.276768,4.099613 -1.640594,1.150651 -3.360096,1.999301 -5.182084,2.554248 l -1.33037,7.278252 c 0.771519,0.287731 1.301584,0.474029 1.586492,0.617535 1.273705,0.641552 2.304179,1.483369 3.141708,2.550771 0.837529,1.067408 1.449184,2.242949 1.811379,3.534924 0.368998,1.275244 0.515869,2.599959 0.440551,3.974164 -0.09208,1.365763 -0.372215,2.697327 -0.890689,3.969358 -0.804998,1.975003 -2.061312,3.520942 -3.762121,4.621087 -1.700808,1.10015 -3.743783,1.503442 -6.152506,1.218181 -0.2002,0.887655 -0.44994,2.194183 -0.718798,3.894548 -0.29244,1.708658 -0.53908,3.0571 -0.739849,4.045328 -0.20082,0.988224 -0.488496,1.892338 -0.836419,2.745944 -0.538941,1.322253 -1.334904,2.333465 -2.394723,3.050407 -1.076575,0.708491 -2.27551,1.072919 -3.613572,1.084848 -1.321304,0.02038 -2.643943,-0.302879 -3.951164,-0.961317 -1.84352,-0.928558 -3.240927,-2.257786 -4.199045,-3.970962 -0.951296,-1.729906 -1.122474,-3.490527 -0.466375,-5.298457 0.370908,-0.761321 0.855428,-1.4049 1.477141,-1.939043 0.621706,-0.534134 1.306155,-0.875278 2.070101,-1.015001 0.754013,-0.164896 1.536651,-0.05312 2.344799,0.293421 0.653612,0.329211 1.198665,0.825654 1.641973,1.472596 0.419727,0.655228 0.691162,1.37696 0.790683,2.17352 0.08277,0.788111 -0.01258,1.567192 -0.312746,2.303629 -0.4025,0.987508 -1.078786,1.655534 -2.02886,2.004108 -0.950056,0.348596 -1.948059,0.269541 -2.970371,-0.245391 l -0.385463,-0.194154 c 0.24429,1.333454 1.105399,2.392564 2.596976,3.143851 0.754168,0.379856 1.593313,0.600795 2.487036,0.687838 0.917304,0.07874 1.741465,-0.01048 2.512824,-0.267506 0.771365,-0.257032 1.372015,-0.640388 1.768439,-1.166953 0.56461,-0.542721 1.087538,-1.429213 1.571901,-2.617564 0.327456,-0.803384 0.571117,-1.648981 0.74774,-2.528347 0.169811,-0.862621 0.364962,-2.035252 0.578652,-3.501153 0.206872,-1.449155 0.38156,-2.571578 0.52719,-3.325333 -1.107886,-0.25544 -2.201538,-0.644899 -3.290891,-1.193594 -1.826759,-0.920119 -3.402877,-2.157812 -4.721536,-3.729809 -1.31866,-1.572003 -2.320231,-3.327239 -3.014658,-5.29089 -0.677665,-1.955206 -1.018965,-3.942723 -1.010246,-5.99603 0.01865,-2.028123 0.389843,-3.979546 1.123506,-5.829085 0.762885,-1.673439 1.749869,-3.153305 2.980828,-4.389246 1.237781,-1.252677 2.609045,-2.337251 4.123728,-3.228547 1.514683,-0.891292 3.01513,-1.648544 4.494518,-2.255013 1.489327,-0.581297 3.426704,-1.320199 5.838817,-2.183111 z" />
    <path
       d="m 87.969441,17.741636 -1.722295,-1.277769 -0.201396,-0.575918 -0.364368,-0.09007 -0.175095,1.028921 -0.01643,8.35e-4 c -0.06057,0.0039 -0.119581,0.05816 -0.132132,0.121549 L 70.738518,90.814752 c -9.56e-4,0.0046 2.32e-4,0.0083 -1.75e-4,0.01233 l -0.134593,0.680273 c -0.01253,0.06343 0.02604,0.111115 0.08661,0.107183 l 1.469776,-0.09515 -0.42284,2.137431 c -0.01253,0.06343 0.02604,0.111124 0.08661,0.107182 l 1.020589,-0.06603 c 0.06056,-0.0037 0.119599,-0.05824 0.13213,-0.121547 l 14.866213,-75.112996 5.97e-4,-0.0039 0.01873,-0.09415 c 8.69e-4,-0.0044 -2.75e-4,-0.0082 8.7e-5,-0.01235 z m -1.365853,0.802179 -13.231613,66.854449 -1.342039,0.08689 13.23129,-66.854275 z"
       style="fill:#ffffff;fill-opacity:1;stroke:none;stroke-width:0.904454;stroke-miterlimit:4;stroke-dasharray:none"
       id="rect910-3" />
  </g>
</svg>
