<?xml version="1.0" encoding="UTF-8" standalone="no"?>
<svg
   xmlns:dc="http://purl.org/dc/elements/1.1/"
   xmlns:cc="http://creativecommons.org/ns#"
   xmlns:rdf="http://www.w3.org/1999/02/22-rdf-syntax-ns#"
   xmlns:svg="http://www.w3.org/2000/svg"
   xmlns="http://www.w3.org/2000/svg"
   xmlns:sodipodi="http://sodipodi.sourceforge.net/DTD/sodipodi-0.dtd"
   xmlns:inkscape="http://www.inkscape.org/namespaces/inkscape"
   width="108mm"
   height="108mm"
   viewBox="0 0 108 108"
   version="1.1"
   id="svg8"
   inkscape:version="1.0 (4035a4fb49, 2020-05-01)"
   sodipodi:docname="app-icon-settings.svg">
  <defs
     id="defs2" />
  <sodipodi:namedview
     inkscape:pagecheckerboard="true"
     id="base"
     pagecolor="#ffffff"
     bordercolor="#666666"
     borderopacity="1.0"
     inkscape:pageopacity="0"
     inkscape:pageshadow="2"
     inkscape:zoom="0.98994949"
     inkscape:cx="50.321995"
     inkscape:cy="190.35209"
     inkscape:document-units="mm"
     inkscape:current-layer="layer1"
     inkscape:document-rotation="0"
     showgrid="false"
     showguides="true"
     inkscape:guide-bbox="true"
     inkscape:window-width="1920"
     inkscape:window-height="1016"
     inkscape:window-x="0"
     inkscape:window-y="27"
     inkscape:window-maximized="1" />
  <metadata
     id="metadata5">
    <rdf:RDF>
      <cc:Work
         rdf:about="">
        <dc:format>image/svg+xml</dc:format>
        <dc:type
           rdf:resource="http://purl.org/dc/dcmitype/StillImage" />
        <dc:title></dc:title>
      </cc:Work>
    </rdf:RDF>
  </metadata>
  <g
     inkscape:label="Calque 1"
     inkscape:groupmode="layer"
     id="layer1">
    <path
       id="rect854-3"
       style="fill:#ffffff;stroke-width:3.77953"
       d="m 183.84375,52.914062 c -9.71985,0 -17.54492,7.825074 -17.54492,17.544922 v 27.240235 a 112.90868,112.90868 0 0 0 -35.44727,20.466801 l -23.59179,-13.6211 c -8.417648,-4.859922 -19.106875,-1.99576 -23.966801,6.42188 l -20.25,35.07422 c -4.859927,8.41763 -1.995765,19.10687 6.421875,23.96679 l 23.591797,13.6211 a 112.90868,112.90868 0 0 0 -1.871094,20.46484 112.90868,112.90868 0 0 0 1.871094,20.4668 l -23.591797,13.62109 c -8.417636,4.85993 -11.2818,15.54916 -6.421875,23.9668 l 20.25,35.07422 c 4.859926,8.41764 15.549157,11.2818 23.966801,6.42187 l 23.59179,-13.62109 a 112.90868,112.90868 0 0 0 35.44727,20.46679 v 27.24024 c 0,9.71985 7.82507,17.54492 17.54492,17.54492 h 40.50195 c 9.71985,0 17.54493,-7.82507 17.54492,-17.54492 v -27.24219 a 112.90868,112.90868 0 0 0 35.44532,-20.46484 l 23.59375,13.62109 c 8.41763,4.85993 19.10687,1.99577 23.96679,-6.42187 l 20.25,-35.07422 c 4.85993,-8.41764 1.99577,-19.10687 -6.42187,-23.9668 l -23.5918,-13.62109 a 112.90868,112.90868 0 0 0 1.8711,-20.4668 112.90868,112.90868 0 0 0 -1.8711,-20.46484 l 23.5918,-13.6211 c 8.41764,-4.85992 11.2818,-15.54916 6.42187,-23.96679 l -20.25,-35.07422 c -4.85992,-8.41764 -15.54915,-11.281802 -23.96679,-6.42188 l -23.5918,13.6211 A 112.90868,112.90868 0 0 0 241.89062,97.699219 V 70.458984 c 0,-9.719848 -7.82507,-17.544922 -17.54492,-17.544922 z m 20.07617,93.171878 a 58.008873,58.008873 0 0 1 0.17383,0 58.008873,58.008873 0 0 1 58.00977,58.00781 58.008873,58.008873 0 0 1 -58.00977,58.00977 58.008873,58.008873 0 0 1 -58.00781,-58.00977 58.008873,58.008873 0 0 1 57.83398,-58.00781 z"
       transform="scale(0.26458333)" />
  </g>
</svg>
